<svg xmlns="http://www.w3.org/2000/svg" viewBox="0 0 512 512">
  <defs>
    <linearGradient id="grad" x1="0%" y1="0%" x2="100%" y2="100%">
      <stop offset="0%" style="stop-color:#10b981;stop-opacity:1" />
      <stop offset="100%" style="stop-color:#059669;stop-opacity:1" />
    </linearGradient>
  </defs>
  <rect width="512" height="512" rx="128" fill="#0a0a0a"/>
  <path d="M384 192H128c-35.3 0-64 28.7-64 64v64c0 35.3 28.7 64 64 64h256c35.3 0 64-28.7 64-64v-64c0-35.3-28.7-64-64-64zm-192 96h-32v32h-32v-32H96v-32h32v-32h32v32h32v32zm160 32c-17.7 0-32-14.3-32-32s14.3-32 32-32 32 14.3 32 32-14.3 32-32 32zm48-48c-17.7 0-32-14.3-32-32s14.3-32 32-32 32 14.3 32 32-14.3 32-32 32z" fill="url(#grad)"/>
</svg>
